<svg width="35" height="34" viewBox="0 0 35 34" fill="none" xmlns="http://www.w3.org/2000/svg">
<rect width="35" height="34" rx="17" fill="#FF9F10"/>
<path fill-rule="evenodd" clip-rule="evenodd" d="M10.7983 13.2886L17.2798 7.75469C17.6776 7.4151 18.3224 7.4151 18.7202 7.75469L25.2017 13.2886C25.5994 13.6282 25.5994 14.1787 25.2017 14.5183C24.804 14.8579 24.1591 14.8579 23.7614 14.5183L19.0185 10.4689L19.0185 24.7C19.0185 25.1802 18.5625 25.5 18 25.5C17.4375 25.5 16.9815 25.1802 16.9815 24.7L16.9815 10.4689L12.2386 14.5183C11.8409 14.8579 11.196 14.8579 10.7983 14.5183C10.4006 14.1787 10.4006 13.6282 10.7983 13.2886Z" fill="white"/>
</svg>
