<?xml version="1.0" encoding="utf-8"?>
<!-- Generator: Adobe Illustrator 25.1.0, SVG Export Plug-In . SVG Version: 6.00 Build 0)  -->
<svg version="1.1" id="Layer_1" xmlns="http://www.w3.org/2000/svg" xmlns:xlink="http://www.w3.org/1999/xlink" x="0px" y="0px"
	 viewBox="0 0 35 34" style="enable-background:new 0 0 35 34;" xml:space="preserve">
<style type="text/css">
	.st0{fill:#FF9F10;}
	.st1{fill-rule:evenodd;clip-rule:evenodd;fill:#FFFFFF;}
</style>
<path class="st0" d="M0.5,17.5v-1c0-9.4,7.6-17,17-17l0,0c9.4,0,17,7.6,17,17v1c0,9.4-7.6,17-17,17l0,0C8.1,34.5,0.5,26.9,0.5,17.5z
	"/>
<path class="st1" d="M13.8,23.7l-5.5-6.5c-0.3-0.4-0.3-1,0-1.4l5.5-6.5c0.3-0.4,0.9-0.4,1.2,0s0.3,1,0,1.4l-4,4.7h14.2
	c0.5,0,0.8,0.5,0.8,1s-0.3,1-0.8,1H11l4,4.7c0.3,0.4,0.3,1,0,1.4S14.1,24.1,13.8,23.7z"/>
</svg>
