<svg width="335" height="130" viewBox="0 0 335 130" fill="none" xmlns="http://www.w3.org/2000/svg">
<path d="M16.522 15.536C17.562 15.8653 18.3767 16.42 18.966 17.2C19.5553 17.9627 19.85 18.9073 19.85 20.034C19.85 21.6287 19.226 22.8593 17.978 23.726C16.7473 24.5753 14.9447 25 12.57 25H3.158V6.8H12.05C14.2687 6.8 15.9673 7.22467 17.146 8.074C18.342 8.92333 18.94 10.076 18.94 11.532C18.94 12.416 18.7233 13.2047 18.29 13.898C17.874 14.5913 17.2847 15.1373 16.522 15.536ZM7.344 9.972V14.262H11.53C12.57 14.262 13.3587 14.08 13.896 13.716C14.4333 13.352 14.702 12.8147 14.702 12.104C14.702 11.3933 14.4333 10.8647 13.896 10.518C13.3587 10.154 12.57 9.972 11.53 9.972H7.344ZM12.258 21.828C13.3673 21.828 14.1993 21.646 14.754 21.282C15.326 20.918 15.612 20.3547 15.612 19.592C15.612 18.084 14.494 17.33 12.258 17.33H7.344V21.828H12.258ZM23.0389 6.8H27.2509V21.568H36.3769V25H23.0389V6.8ZM50.8686 21.1H42.4186L40.8066 25H36.4906L44.6026 6.8H48.7626L56.9006 25H52.4806L50.8686 21.1ZM49.5426 17.902L46.6566 10.934L43.7706 17.902H49.5426ZM70.833 15.614H74.681V22.998C73.693 23.7433 72.549 24.3153 71.249 24.714C69.949 25.1127 68.6403 25.312 67.323 25.312C65.4336 25.312 63.735 24.9133 62.227 24.116C60.719 23.3013 59.5316 22.1833 58.665 20.762C57.8156 19.3233 57.391 17.7027 57.391 15.9C57.391 14.0973 57.8156 12.4853 58.665 11.064C59.5316 9.62533 60.7276 8.50733 62.253 7.71C63.7783 6.89533 65.4943 6.488 67.401 6.488C68.9956 6.488 70.443 6.75667 71.743 7.294C73.043 7.83133 74.135 8.61133 75.019 9.634L72.315 12.13C71.015 10.7607 69.4463 10.076 67.609 10.076C66.4476 10.076 65.4163 10.3187 64.515 10.804C63.6136 11.2893 62.9116 11.974 62.409 12.858C61.9063 13.742 61.655 14.756 61.655 15.9C61.655 17.0267 61.9063 18.032 62.409 18.916C62.9116 19.8 63.605 20.4933 64.489 20.996C65.3903 21.4813 66.413 21.724 67.557 21.724C68.7703 21.724 69.8623 21.464 70.833 20.944V15.614ZM78.5935 6.8H82.8055V25H78.5935V6.8ZM90.8948 10.232H85.0708V6.8H100.931V10.232H95.1068V25H90.8948V10.232ZM109.05 25.312C107.611 25.312 106.216 25.1213 104.864 24.74C103.529 24.3413 102.455 23.83 101.64 23.206L103.07 20.034C103.85 20.606 104.777 21.0653 105.852 21.412C106.927 21.7587 108.001 21.932 109.076 21.932C110.272 21.932 111.156 21.7587 111.728 21.412C112.3 21.048 112.586 20.5713 112.586 19.982C112.586 19.5487 112.413 19.1933 112.066 18.916C111.737 18.6213 111.303 18.3873 110.766 18.214C110.246 18.0407 109.535 17.85 108.634 17.642C107.247 17.3127 106.112 16.9833 105.228 16.654C104.344 16.3247 103.581 15.796 102.94 15.068C102.316 14.34 102.004 13.3693 102.004 12.156C102.004 11.0987 102.29 10.1453 102.862 9.296C103.434 8.42933 104.292 7.74467 105.436 7.242C106.597 6.73933 108.01 6.488 109.674 6.488C110.835 6.488 111.971 6.62667 113.08 6.904C114.189 7.18133 115.16 7.58 115.992 8.1L114.692 11.298C113.011 10.3447 111.329 9.868 109.648 9.868C108.469 9.868 107.594 10.0587 107.022 10.44C106.467 10.8213 106.19 11.324 106.19 11.948C106.19 12.572 106.511 13.04 107.152 13.352C107.811 13.6467 108.807 13.9413 110.142 14.236C111.529 14.5653 112.664 14.8947 113.548 15.224C114.432 15.5533 115.186 16.0733 115.81 16.784C116.451 17.4947 116.772 18.4567 116.772 19.67C116.772 20.71 116.477 21.6633 115.888 22.53C115.316 23.3793 114.449 24.0553 113.288 24.558C112.127 25.0607 110.714 25.312 109.05 25.312ZM127.013 6.8H135.281C137.257 6.8 138.999 7.18133 140.507 7.944C142.033 8.68933 143.211 9.74667 144.043 11.116C144.893 12.4853 145.317 14.08 145.317 15.9C145.317 17.72 144.893 19.3147 144.043 20.684C143.211 22.0533 142.033 23.1193 140.507 23.882C138.999 24.6273 137.257 25 135.281 25H127.013V6.8ZM135.073 21.542C136.893 21.542 138.341 21.0393 139.415 20.034C140.507 19.0113 141.053 17.6333 141.053 15.9C141.053 14.1667 140.507 12.7973 139.415 11.792C138.341 10.7693 136.893 10.258 135.073 10.258H131.225V21.542H135.073ZM157.308 25.312C155.419 25.312 153.711 24.9047 152.186 24.09C150.678 23.2753 149.491 22.1573 148.624 20.736C147.775 19.2973 147.35 17.6853 147.35 15.9C147.35 14.1147 147.775 12.5113 148.624 11.09C149.491 9.65133 150.678 8.52467 152.186 7.71C153.711 6.89533 155.419 6.488 157.308 6.488C159.197 6.488 160.896 6.89533 162.404 7.71C163.912 8.52467 165.099 9.65133 165.966 11.09C166.833 12.5113 167.266 14.1147 167.266 15.9C167.266 17.6853 166.833 19.2973 165.966 20.736C165.099 22.1573 163.912 23.2753 162.404 24.09C160.896 24.9047 159.197 25.312 157.308 25.312ZM157.308 21.724C158.383 21.724 159.353 21.4813 160.22 20.996C161.087 20.4933 161.763 19.8 162.248 18.916C162.751 18.032 163.002 17.0267 163.002 15.9C163.002 14.7733 162.751 13.768 162.248 12.884C161.763 12 161.087 11.3153 160.22 10.83C159.353 10.3273 158.383 10.076 157.308 10.076C156.233 10.076 155.263 10.3273 154.396 10.83C153.529 11.3153 152.845 12 152.342 12.884C151.857 13.768 151.614 14.7733 151.614 15.9C151.614 17.0267 151.857 18.032 152.342 18.916C152.845 19.8 153.529 20.4933 154.396 20.996C155.263 21.4813 156.233 21.724 157.308 21.724ZM187.123 6.8V25H183.665L174.591 13.95V25H170.431V6.8H173.915L182.963 17.85V6.8H187.123ZM203.415 21.1H194.965L193.353 25H189.037L197.149 6.8H201.309L209.447 25H205.027L203.415 21.1ZM202.089 17.902L199.203 10.934L196.317 17.902H202.089Z" fill="white"/>
<path d="M33.462 95.256C35.302 95.8387 36.7433 96.82 37.786 98.2C38.8287 99.5493 39.35 101.221 39.35 103.214C39.35 106.035 38.246 108.213 36.038 109.746C33.8607 111.249 30.6713 112 26.47 112H9.818V79.8H25.55C29.4753 79.8 32.4807 80.5513 34.566 82.054C36.682 83.5567 37.74 85.596 37.74 88.172C37.74 89.736 37.3567 91.1313 36.59 92.358C35.854 93.5847 34.8113 94.5507 33.462 95.256ZM17.224 85.412V93.002H24.63C26.47 93.002 27.8653 92.68 28.816 92.036C29.7667 91.392 30.242 90.4413 30.242 89.184C30.242 87.9267 29.7667 86.9913 28.816 86.378C27.8653 85.734 26.47 85.412 24.63 85.412H17.224ZM25.918 106.388C27.8807 106.388 29.3527 106.066 30.334 105.422C31.346 104.778 31.852 103.781 31.852 102.432C31.852 99.764 29.874 98.43 25.918 98.43H17.224V106.388H25.918ZM44.9918 79.8H52.4438V105.928H68.5898V112H44.9918V79.8ZM94.2291 105.1H79.2791L76.4271 112H68.7911L83.1431 79.8H90.5031L104.901 112H97.0811L94.2291 105.1ZM91.8831 99.442L86.7771 87.114L81.6711 99.442H91.8831ZM108.242 79.8H122.87C126.366 79.8 129.448 80.4747 132.116 81.824C134.814 83.1427 136.9 85.0133 138.372 87.436C139.874 89.8587 140.626 92.68 140.626 95.9C140.626 99.12 139.874 101.941 138.372 104.364C136.9 106.787 134.814 108.673 132.116 110.022C129.448 111.341 126.366 112 122.87 112H108.242V79.8ZM122.502 105.882C125.722 105.882 128.282 104.993 130.184 103.214C132.116 101.405 133.082 98.9667 133.082 95.9C133.082 92.8333 132.116 90.4107 130.184 88.632C128.282 86.8227 125.722 85.918 122.502 85.918H115.694V105.882H122.502ZM161.84 112.552C158.497 112.552 155.476 111.831 152.778 110.39C150.11 108.949 148.009 106.971 146.476 104.456C144.973 101.911 144.222 99.0587 144.222 95.9C144.222 92.7413 144.973 89.9047 146.476 87.39C148.009 84.8447 150.11 82.8513 152.778 81.41C155.476 79.9687 158.497 79.248 161.84 79.248C165.182 79.248 168.188 79.9687 170.856 81.41C173.524 82.8513 175.624 84.8447 177.158 87.39C178.691 89.9047 179.458 92.7413 179.458 95.9C179.458 99.0587 178.691 101.911 177.158 104.456C175.624 106.971 173.524 108.949 170.856 110.39C168.188 111.831 165.182 112.552 161.84 112.552ZM161.84 106.204C163.741 106.204 165.458 105.775 166.992 104.916C168.525 104.027 169.721 102.8 170.58 101.236C171.469 99.672 171.914 97.8933 171.914 95.9C171.914 93.9067 171.469 92.128 170.58 90.564C169.721 89 168.525 87.7887 166.992 86.93C165.458 86.0407 163.741 85.596 161.84 85.596C159.938 85.596 158.221 86.0407 156.688 86.93C155.154 87.7887 153.943 89 153.054 90.564C152.195 92.128 151.766 93.9067 151.766 95.9C151.766 97.8933 152.195 99.672 153.054 101.236C153.943 102.8 155.154 104.027 156.688 104.916C158.221 105.775 159.938 106.204 161.84 106.204Z" fill="#FF9F10"/>
<path d="M212.07 112.46C210.69 112.46 209.67 112.138 209.011 111.494C208.367 110.835 208.045 109.953 208.045 108.849C208.045 108.665 208.052 108.458 208.068 108.228C208.083 107.983 208.114 107.745 208.16 107.515L208.85 104.019L210.253 100.247L210.414 97.487L215.589 78.236H211.932V77.5H221.753L213.197 109.723C213.135 109.953 213.105 110.191 213.105 110.436C213.105 110.605 213.151 110.766 213.243 110.919C213.35 111.057 213.526 111.126 213.772 111.126C214.262 111.126 214.776 110.942 215.313 110.574C215.865 110.191 216.455 109.524 217.084 108.573C217.728 107.607 218.418 106.273 219.154 104.571L219.867 104.801C219.131 106.549 218.387 107.99 217.636 109.125C216.884 110.26 216.056 111.103 215.152 111.655C214.247 112.192 213.22 112.46 212.07 112.46ZM201.398 112.46C199.282 112.46 197.748 111.785 196.798 110.436C195.862 109.071 195.395 107.254 195.395 104.985C195.395 103.222 195.724 101.481 196.384 99.764C197.043 98.0313 197.925 96.4597 199.029 95.049C200.133 93.6383 201.359 92.5113 202.709 91.668C204.058 90.8093 205.43 90.38 206.826 90.38C207.776 90.38 208.551 90.6253 209.149 91.116C209.762 91.5913 210.214 92.2583 210.506 93.117C210.797 93.9757 210.943 94.9723 210.943 96.107C210.943 96.8583 210.843 97.786 210.644 98.89C210.46 99.9787 210.184 101.136 209.816 102.363C209.463 103.59 209.011 104.801 208.459 105.997C207.922 107.178 207.301 108.259 206.596 109.24C205.89 110.221 205.101 111.003 204.227 111.586C203.368 112.169 202.425 112.46 201.398 112.46ZM203.376 110.597C204.004 110.597 204.648 110.275 205.308 109.631C205.967 108.972 206.596 108.113 207.194 107.055C207.792 105.997 208.328 104.824 208.804 103.536C209.279 102.233 209.655 100.929 209.931 99.626C210.207 98.3073 210.345 97.0883 210.345 95.969C210.345 95.2177 210.276 94.5583 210.138 93.991C210 93.4237 209.777 92.9867 209.471 92.68C209.179 92.358 208.796 92.197 208.321 92.197C207.707 92.197 207.079 92.5497 206.435 93.255C205.791 93.945 205.162 94.8573 204.549 95.992C203.951 97.1113 203.414 98.3457 202.939 99.695C202.463 101.044 202.08 102.394 201.789 103.743C201.513 105.077 201.375 106.281 201.375 107.354C201.375 108.381 201.543 109.179 201.881 109.746C202.218 110.313 202.716 110.597 203.376 110.597ZM229.599 112.46C227.928 112.46 226.533 112.138 225.413 111.494C224.309 110.835 223.474 109.953 222.906 108.849C222.354 107.73 222.078 106.48 222.078 105.1C222.078 103.214 222.431 101.389 223.136 99.626C223.842 97.8627 224.823 96.291 226.08 94.911C227.338 93.5157 228.794 92.4117 230.45 91.599C232.106 90.7863 233.885 90.38 235.786 90.38C237.964 90.38 239.658 90.8553 240.869 91.806C242.081 92.7567 242.686 93.922 242.686 95.302C242.686 96.4213 242.334 97.441 241.628 98.361C240.938 99.2657 239.942 100.055 238.638 100.73C237.35 101.389 235.809 101.926 234.015 102.34C232.221 102.739 230.22 102.999 228.012 103.122V102.547C229.116 102.47 230.151 102.21 231.117 101.765C232.099 101.305 232.98 100.722 233.762 100.017C234.56 99.2963 235.25 98.522 235.832 97.694C236.415 96.8507 236.86 96.0073 237.166 95.164C237.488 94.3207 237.649 93.5463 237.649 92.841C237.649 92.381 237.55 91.9823 237.35 91.645C237.151 91.2923 236.798 91.116 236.292 91.116C235.618 91.116 234.935 91.4073 234.245 91.99C233.571 92.5727 232.911 93.3623 232.267 94.359C231.639 95.3403 231.056 96.4443 230.519 97.671C229.983 98.8977 229.507 100.163 229.093 101.466C228.695 102.754 228.38 104.004 228.15 105.215C227.936 106.411 227.828 107.477 227.828 108.412C227.828 109.562 228.089 110.359 228.61 110.804C229.147 111.249 229.837 111.471 230.68 111.471C231.738 111.471 232.796 111.233 233.854 110.758C234.928 110.283 235.947 109.608 236.913 108.734C237.895 107.86 238.784 106.825 239.581 105.629L240.225 106.043C239.505 107.132 238.646 108.167 237.649 109.148C236.653 110.114 235.487 110.911 234.153 111.54C232.835 112.153 231.317 112.46 229.599 112.46ZM252.695 112.46C251.055 112.46 249.59 112.238 248.302 111.793C247.03 111.333 246.018 110.681 245.266 109.838C244.53 108.995 244.162 108.006 244.162 106.871C244.162 105.951 244.461 105.161 245.059 104.502C245.673 103.843 246.485 103.513 247.497 103.513C248.417 103.513 249.176 103.804 249.774 104.387C250.372 104.954 250.671 105.721 250.671 106.687C250.671 107.684 250.349 108.443 249.705 108.964C249.061 109.47 248.31 109.723 247.451 109.723C246.853 109.723 246.309 109.6 245.818 109.355C245.328 109.11 244.937 108.78 244.645 108.366C244.354 107.937 244.208 107.438 244.208 106.871H245.197C245.197 107.883 245.519 108.749 246.163 109.47C246.807 110.191 247.658 110.743 248.716 111.126C249.79 111.494 250.955 111.678 252.212 111.678C253.025 111.678 253.799 111.525 254.535 111.218C255.287 110.896 255.892 110.444 256.352 109.861C256.828 109.278 257.065 108.604 257.065 107.837C257.065 107.024 256.828 106.311 256.352 105.698C255.877 105.069 255.264 104.502 254.512 103.996C253.776 103.475 252.979 102.969 252.12 102.478C251.277 101.972 250.48 101.451 249.728 100.914C248.992 100.362 248.387 99.741 247.911 99.051C247.436 98.3457 247.198 97.533 247.198 96.613C247.198 95.4323 247.559 94.3667 248.279 93.416C249 92.4653 250.012 91.714 251.315 91.162C252.634 90.5947 254.183 90.311 255.961 90.311C257.694 90.311 259.097 90.5487 260.17 91.024C261.259 91.4993 262.056 92.0973 262.562 92.818C263.084 93.5233 263.344 94.2363 263.344 94.957C263.344 95.9537 263.038 96.7203 262.424 97.257C261.811 97.7783 261.121 98.039 260.354 98.039C259.496 98.039 258.729 97.763 258.054 97.211C257.38 96.659 257.042 95.8923 257.042 94.911C257.042 94.129 257.326 93.462 257.893 92.91C258.461 92.3427 259.204 92.059 260.124 92.059C260.968 92.059 261.704 92.3273 262.332 92.864C262.976 93.4007 263.298 94.0983 263.298 94.957H262.424C262.424 94.313 262.187 93.6997 261.711 93.117C261.251 92.519 260.577 92.036 259.687 91.668C258.813 91.2847 257.763 91.093 256.536 91.093C255.708 91.093 254.957 91.2387 254.282 91.53C253.623 91.8213 253.086 92.22 252.672 92.726C252.274 93.232 252.074 93.8147 252.074 94.474C252.074 95.256 252.32 95.946 252.81 96.544C253.301 97.1267 253.93 97.6633 254.696 98.154C255.463 98.6447 256.276 99.1353 257.134 99.626C257.993 100.117 258.806 100.653 259.572 101.236C260.354 101.819 260.983 102.486 261.458 103.237C261.949 103.988 262.194 104.885 262.194 105.928C262.194 107.247 261.773 108.397 260.929 109.378C260.101 110.359 258.967 111.118 257.525 111.655C256.099 112.192 254.489 112.46 252.695 112.46ZM270.163 112.46C268.675 112.46 267.602 112.169 266.943 111.586C266.299 111.003 265.977 110.237 265.977 109.286C265.977 108.872 266.007 108.481 266.069 108.113C266.145 107.745 266.214 107.438 266.276 107.193L270.577 91.576H267.334V90.84H276.695L271.543 109.654C271.512 109.777 271.481 109.907 271.451 110.045C271.435 110.168 271.428 110.29 271.428 110.413C271.428 110.612 271.474 110.781 271.566 110.919C271.673 111.057 271.849 111.126 272.095 111.126C272.585 111.126 273.099 110.942 273.636 110.574C274.188 110.191 274.778 109.524 275.407 108.573C276.051 107.622 276.741 106.288 277.477 104.571L278.19 104.801C277.469 106.549 276.725 107.99 275.959 109.125C275.192 110.26 274.349 111.103 273.429 111.655C272.509 112.192 271.42 112.46 270.163 112.46ZM275.729 84.998C274.993 84.998 274.326 84.814 273.728 84.446C273.145 84.078 272.685 83.595 272.348 82.997C272.01 82.399 271.842 81.755 271.842 81.065C271.842 80.3597 272.01 79.7157 272.348 79.133C272.685 78.535 273.145 78.0597 273.728 77.707C274.326 77.339 274.993 77.155 275.729 77.155C276.465 77.155 277.124 77.339 277.707 77.707C278.305 78.0597 278.78 78.535 279.133 79.133C279.485 79.7157 279.662 80.3597 279.662 81.065C279.662 81.755 279.485 82.399 279.133 82.997C278.78 83.595 278.305 84.078 277.707 84.446C277.124 84.814 276.465 84.998 275.729 84.998ZM285.886 123.96C283.801 123.96 282.037 123.738 280.596 123.293C279.155 122.864 278.066 122.243 277.33 121.43C276.594 120.633 276.226 119.682 276.226 118.578C276.226 117.811 276.456 117.091 276.916 116.416C277.361 115.757 277.966 115.166 278.733 114.645C279.484 114.139 280.328 113.74 281.263 113.449C282.198 113.158 283.141 113.012 284.092 113.012H284.851C284.115 113.196 283.448 113.549 282.85 114.07C282.267 114.607 281.8 115.258 281.447 116.025C281.094 116.807 280.918 117.658 280.918 118.578C280.918 120.035 281.401 121.146 282.367 121.913C283.348 122.695 284.797 123.086 286.714 123.086C288.201 123.086 289.627 122.902 290.992 122.534C292.372 122.181 293.606 121.683 294.695 121.039C295.784 120.395 296.642 119.644 297.271 118.785C297.915 117.942 298.237 117.029 298.237 116.048C298.237 115.205 297.976 114.576 297.455 114.162C296.934 113.763 296.19 113.564 295.224 113.564C294.933 113.564 294.473 113.564 293.844 113.564C293.215 113.564 292.502 113.564 291.705 113.564C290.923 113.564 290.149 113.564 289.382 113.564C288.615 113.564 287.941 113.564 287.358 113.564C286.775 113.564 286.384 113.564 286.185 113.564C284.805 113.564 283.563 113.372 282.459 112.989C281.355 112.606 280.481 112.061 279.837 111.356C279.208 110.635 278.894 109.784 278.894 108.803C278.894 107.944 279.147 107.178 279.653 106.503C280.174 105.828 280.864 105.261 281.723 104.801C282.582 104.326 283.555 103.973 284.644 103.743C285.733 103.498 286.852 103.375 288.002 103.375L287.956 103.812C286.453 103.812 285.311 104.088 284.529 104.64C283.747 105.192 283.356 105.759 283.356 106.342C283.356 106.863 283.548 107.27 283.931 107.561C284.33 107.837 284.851 108.029 285.495 108.136C286.139 108.228 286.837 108.274 287.588 108.274C288.125 108.274 288.776 108.274 289.543 108.274C290.325 108.259 291.092 108.251 291.843 108.251C292.594 108.236 293.185 108.228 293.614 108.228C295.515 108.228 297.079 108.673 298.306 109.562C299.548 110.436 300.169 111.893 300.169 113.932C300.169 115.603 299.747 117.068 298.904 118.325C298.061 119.582 296.941 120.625 295.546 121.453C294.166 122.296 292.633 122.925 290.946 123.339C289.259 123.753 287.573 123.96 285.886 123.96ZM290.9 104.64C289.382 104.64 288.025 104.387 286.829 103.881C285.648 103.375 284.713 102.654 284.023 101.719C283.348 100.784 283.011 99.6643 283.011 98.361C283.011 96.889 283.479 95.555 284.414 94.359C285.349 93.1477 286.591 92.1893 288.14 91.484C289.689 90.7633 291.375 90.403 293.2 90.403C294.703 90.403 296.044 90.6713 297.225 91.208C298.421 91.7447 299.364 92.5037 300.054 93.485C300.744 94.451 301.089 95.5857 301.089 96.889C301.089 98.3457 300.614 99.6643 299.663 100.845C298.728 102.01 297.486 102.938 295.937 103.628C294.404 104.303 292.725 104.64 290.9 104.64ZM290.325 103.881C290.785 103.881 291.253 103.628 291.728 103.122C292.203 102.601 292.663 101.926 293.108 101.098C293.553 100.255 293.951 99.3577 294.304 98.407C294.657 97.441 294.933 96.5133 295.132 95.624C295.347 94.7347 295.454 93.9833 295.454 93.37C295.454 92.7413 295.316 92.2123 295.04 91.783C294.779 91.3537 294.358 91.139 293.775 91.139C293.315 91.139 292.847 91.3997 292.372 91.921C291.897 92.4423 291.437 93.117 290.992 93.945C290.547 94.773 290.149 95.67 289.796 96.636C289.443 97.5867 289.16 98.5067 288.945 99.396C288.746 100.285 288.646 101.029 288.646 101.627C288.646 102.256 288.776 102.792 289.037 103.237C289.313 103.666 289.742 103.881 290.325 103.881ZM304.125 90.61C305.198 90.61 306.088 90.9473 306.793 91.622C307.514 92.2813 307.874 93.117 307.874 94.129C307.874 94.9877 307.621 95.7237 307.115 96.337C306.609 96.935 305.904 97.234 304.999 97.234C304.232 97.234 303.573 96.981 303.021 96.475C302.469 95.969 302.193 95.2943 302.193 94.451C302.193 93.7303 302.438 93.14 302.929 92.68C303.435 92.2047 304.025 91.9363 304.7 91.875C305.083 91.9057 305.444 92.0283 305.781 92.243C306.118 92.4577 306.364 92.7567 306.517 93.14C306.364 92.588 306.042 92.151 305.551 91.829C305.076 91.507 304.524 91.346 303.895 91.346C303.159 91.346 302.461 91.5223 301.802 91.875C301.158 92.2277 300.552 92.749 299.985 93.439C299.418 94.129 298.889 94.98 298.398 95.992L297.869 95.693C298.682 93.991 299.594 92.7183 300.606 91.875C301.633 91.0317 302.806 90.61 304.125 90.61ZM325.161 112.46C323.781 112.46 322.754 112.146 322.079 111.517C321.404 110.873 321.067 110.007 321.067 108.918C321.067 108.581 321.105 108.22 321.182 107.837C321.259 107.438 321.343 107.093 321.435 106.802L324.172 97.556C324.525 96.36 324.762 95.371 324.885 94.589C325.008 93.807 324.985 93.2243 324.816 92.841C324.663 92.4577 324.341 92.266 323.85 92.266C323.344 92.266 322.715 92.6263 321.964 93.347C321.228 94.0523 320.454 95.0337 319.641 96.291C318.828 97.5483 318.054 98.9973 317.318 100.638C316.582 102.279 315.961 104.027 315.455 105.882H314.949C315.302 104.563 315.746 103.191 316.283 101.765C316.835 100.324 317.464 98.936 318.169 97.602C318.89 96.2527 319.672 95.0337 320.515 93.945C321.374 92.8563 322.278 91.9977 323.229 91.369C324.18 90.725 325.161 90.403 326.173 90.403C327.446 90.403 328.45 90.7097 329.186 91.323C329.937 91.921 330.405 92.7413 330.589 93.784C330.788 94.8267 330.696 95.9997 330.313 97.303L326.794 109.263C326.763 109.386 326.733 109.531 326.702 109.7C326.671 109.869 326.656 110.014 326.656 110.137C326.656 110.382 326.702 110.574 326.794 110.712C326.901 110.85 327.078 110.919 327.323 110.919C328.182 110.919 329.048 110.405 329.922 109.378C330.811 108.351 331.716 106.748 332.636 104.571L333.326 104.801C332.575 106.656 331.793 108.144 330.98 109.263C330.167 110.382 329.286 111.195 328.335 111.701C327.384 112.207 326.326 112.46 325.161 112.46ZM307.819 112L313.201 91.576H310.073V90.84H319.457L313.845 112H307.819Z" fill="white"/>
<path d="M1 27V38.0728H29.5791M58.1582 27V38.0728H29.5791M124.752 27V38.0728H146.376M168 27V38.0728H146.376M29.5791 38.0728V65M146.376 38.0728V65" stroke="#FF9F10" stroke-width="2"/>
</svg>
