<svg width="489" height="253" viewBox="0 0 489 253" fill="none" xmlns="http://www.w3.org/2000/svg">
<path d="M84.1 30.8H85.1V29.8H84.1V30.8ZM84.1 112V113H85.1V112H84.1ZM68.672 112L67.8992 112.635L68.1992 113H68.672V112ZM28.188 62.7L28.9608 62.0654L27.188 59.9065V62.7H28.188ZM28.188 112V113H29.188V112H28.188ZM9.628 112H8.628V113H9.628V112ZM9.628 30.8V29.8H8.628V30.8H9.628ZM25.172 30.8L25.9457 30.1665L25.6456 29.8H25.172V30.8ZM65.54 80.1L64.7663 80.7335L66.54 82.8997V80.1H65.54ZM65.54 30.8V29.8H64.54V30.8H65.54ZM83.1 30.8V112H85.1V30.8H83.1ZM84.1 111H68.672V113H84.1V111ZM69.4448 111.365L28.9608 62.0654L27.4152 63.3346L67.8992 112.635L69.4448 111.365ZM27.188 62.7V112H29.188V62.7H27.188ZM28.188 111H9.628V113H28.188V111ZM10.628 112V30.8H8.628V112H10.628ZM9.628 31.8H25.172V29.8H9.628V31.8ZM24.3983 31.4335L64.7663 80.7335L66.3137 79.4665L25.9457 30.1665L24.3983 31.4335ZM66.54 80.1V30.8H64.54V80.1H66.54ZM65.54 31.8H84.1V29.8H65.54V31.8ZM166.184 96.92H167.184V95.92H166.184V96.92ZM166.184 112V113H167.184V112H166.184ZM103.312 112H102.312V113H103.312V112ZM103.312 30.8V29.8H102.312V30.8H103.312ZM164.676 30.8H165.676V29.8H164.676V30.8ZM164.676 45.88V46.88H165.676V45.88H164.676ZM121.988 45.88V44.88H120.988V45.88H121.988ZM121.988 63.512H120.988V64.512H121.988V63.512ZM159.688 63.512H160.688V62.512H159.688V63.512ZM159.688 78.128V79.128H160.688V78.128H159.688ZM121.988 78.128V77.128H120.988V78.128H121.988ZM121.988 96.92H120.988V97.92H121.988V96.92ZM165.184 96.92V112H167.184V96.92H165.184ZM166.184 111H103.312V113H166.184V111ZM104.312 112V30.8H102.312V112H104.312ZM103.312 31.8H164.676V29.8H103.312V31.8ZM163.676 30.8V45.88H165.676V30.8H163.676ZM164.676 44.88H121.988V46.88H164.676V44.88ZM120.988 45.88V63.512H122.988V45.88H120.988ZM121.988 64.512H159.688V62.512H121.988V64.512ZM158.688 63.512V78.128H160.688V63.512H158.688ZM159.688 77.128H121.988V79.128H159.688V77.128ZM120.988 78.128V96.92H122.988V78.128H120.988ZM121.988 97.92H166.184V95.92H121.988V97.92ZM231.499 112L230.678 112.571L230.976 113H231.499V112ZM211.895 83.812L212.716 83.241L211.887 82.05L211.069 83.2479L211.895 83.812ZM192.639 112V113H193.167L193.465 112.564L192.639 112ZM171.063 112L170.254 111.412L169.099 113H171.063V112ZM201.107 70.704L201.915 71.2923L202.34 70.709L201.92 70.1223L201.107 70.704ZM172.571 30.8V29.8H170.626L171.757 31.3817L172.571 30.8ZM193.915 30.8L194.731 30.2215L194.432 29.8H193.915V30.8ZM212.591 57.132L211.775 57.7105L212.599 58.8714L213.412 57.7033L212.591 57.132ZM230.919 30.8V29.8H230.396L230.098 30.2287L230.919 30.8ZM251.219 30.8L252.03 31.3853L253.174 29.8H251.219V30.8ZM222.915 70.008L222.104 69.4227L221.682 70.0076L222.104 70.5928L222.915 70.008ZM253.191 112V113H255.145L254.002 111.415L253.191 112ZM232.32 111.429L212.716 83.241L211.074 84.383L230.678 112.571L232.32 111.429ZM211.069 83.2479L191.813 111.436L193.465 112.564L212.721 84.3761L211.069 83.2479ZM192.639 111H171.063V113H192.639V111ZM171.871 112.588L201.915 71.2923L200.298 70.1157L170.254 111.412L171.871 112.588ZM201.92 70.1223L173.384 30.2183L171.757 31.3817L200.293 71.2857L201.92 70.1223ZM172.571 31.8H193.915V29.8H172.571V31.8ZM193.099 31.3785L211.775 57.7105L213.407 56.5535L194.731 30.2215L193.099 31.3785ZM213.412 57.7033L231.74 31.3713L230.098 30.2287L211.77 56.5607L213.412 57.7033ZM230.919 31.8H251.219V29.8H230.919V31.8ZM250.408 30.2147L222.104 69.4227L223.726 70.5933L252.03 31.3853L250.408 30.2147ZM222.104 70.5928L252.38 112.585L254.002 111.415L223.726 69.4232L222.104 70.5928ZM253.191 111H231.499V113H253.191V111ZM276.46 46.112H277.46V45.112H276.46V46.112ZM250.476 46.112H249.476V47.112H250.476V46.112ZM250.476 30.8V29.8H249.476V30.8H250.476ZM321.236 30.8H322.236V29.8H321.236V30.8ZM321.236 46.112V47.112H322.236V46.112H321.236ZM295.252 46.112V45.112H294.252V46.112H295.252ZM295.252 112V113H296.252V112H295.252ZM276.46 112H275.46V113H276.46V112ZM276.46 45.112H250.476V47.112H276.46V45.112ZM251.476 46.112V30.8H249.476V46.112H251.476ZM250.476 31.8H321.236V29.8H250.476V31.8ZM320.236 30.8V46.112H322.236V30.8H320.236ZM321.236 45.112H295.252V47.112H321.236V45.112ZM294.252 46.112V112H296.252V46.112H294.252ZM295.252 111H276.46V113H295.252V111ZM277.46 112V46.112H275.46V112H277.46Z" fill="#FF9F10"/>
<path d="M38.214 158.7C44.352 158.7 49.665 159.723 54.153 161.769C58.707 163.815 62.205 166.719 64.647 170.481C67.089 174.243 68.31 178.698 68.31 183.846C68.31 188.928 67.089 193.383 64.647 197.211C62.205 200.973 58.707 203.877 54.153 205.923C49.665 207.903 44.352 208.893 38.214 208.893H24.255V228H8.217V158.7H38.214ZM37.323 195.825C42.141 195.825 45.804 194.802 48.312 192.756C50.82 190.644 52.074 187.674 52.074 183.846C52.074 179.952 50.82 176.982 48.312 174.936C45.804 172.824 42.141 171.768 37.323 171.768H24.255V195.825H37.323ZM123.914 228L110.549 208.695H109.757H95.798V228H79.76V158.7H109.757C115.895 158.7 121.208 159.723 125.696 161.769C130.25 163.815 133.748 166.719 136.19 170.481C138.632 174.243 139.853 178.698 139.853 183.846C139.853 188.994 138.599 193.449 136.091 197.211C133.649 200.907 130.151 203.745 125.597 205.725L141.14 228H123.914ZM123.617 183.846C123.617 179.952 122.363 176.982 119.855 174.936C117.347 172.824 113.684 171.768 108.866 171.768H95.798V195.924H108.866C113.684 195.924 117.347 194.868 119.855 192.756C122.363 190.644 123.617 187.674 123.617 183.846ZM186.121 229.188C178.927 229.188 172.426 227.637 166.618 224.535C160.876 221.433 156.355 217.176 153.055 211.764C149.821 206.286 148.204 200.148 148.204 193.35C148.204 186.552 149.821 180.447 153.055 175.035C156.355 169.557 160.876 165.267 166.618 162.165C172.426 159.063 178.927 157.512 186.121 157.512C193.315 157.512 199.783 159.063 205.525 162.165C211.267 165.267 215.788 169.557 219.088 175.035C222.388 180.447 224.038 186.552 224.038 193.35C224.038 200.148 222.388 206.286 219.088 211.764C215.788 217.176 211.267 221.433 205.525 224.535C199.783 227.637 193.315 229.188 186.121 229.188ZM186.121 215.526C190.213 215.526 193.909 214.602 197.209 212.754C200.509 210.84 203.083 208.2 204.931 204.834C206.845 201.468 207.802 197.64 207.802 193.35C207.802 189.06 206.845 185.232 204.931 181.866C203.083 178.5 200.509 175.893 197.209 174.045C193.909 172.131 190.213 171.174 186.121 171.174C182.029 171.174 178.333 172.131 175.033 174.045C171.733 175.893 169.126 178.5 167.212 181.866C165.364 185.232 164.44 189.06 164.44 193.35C164.44 197.64 165.364 201.468 167.212 204.834C169.126 208.2 171.733 210.84 175.033 212.754C178.333 214.602 182.029 215.526 186.121 215.526ZM247.412 229.188C242.726 229.188 238.403 228.33 234.443 226.614C230.549 224.832 227.348 222.324 224.84 219.09L233.75 208.398C237.512 213.48 241.802 216.021 246.62 216.021C253.154 216.021 256.421 212.193 256.421 204.537V171.57H232.067V158.7H272.36V203.646C272.36 212.16 270.248 218.562 266.024 222.852C261.8 227.076 255.596 229.188 247.412 229.188ZM341.859 215.13V228H288.201V158.7H340.572V171.57H304.14V186.618H336.315V199.092H304.14V215.13H341.859ZM387.592 229.188C380.53 229.188 374.128 227.67 368.386 224.634C362.71 221.532 358.222 217.275 354.922 211.863C351.688 206.385 350.071 200.214 350.071 193.35C350.071 186.486 351.688 180.348 354.922 174.936C358.222 169.458 362.71 165.201 368.386 162.165C374.128 159.063 380.563 157.512 387.691 157.512C393.697 157.512 399.109 158.568 403.927 160.68C408.811 162.792 412.903 165.828 416.203 169.788L405.907 179.292C401.221 173.88 395.413 171.174 388.483 171.174C384.193 171.174 380.365 172.131 376.999 174.045C373.633 175.893 370.993 178.5 369.079 181.866C367.231 185.232 366.307 189.06 366.307 193.35C366.307 197.64 367.231 201.468 369.079 204.834C370.993 208.2 373.633 210.84 376.999 212.754C380.365 214.602 384.193 215.526 388.483 215.526C395.413 215.526 401.221 212.787 405.907 207.309L416.203 216.813C412.903 220.839 408.811 223.908 403.927 226.02C399.043 228.132 393.598 229.188 387.592 229.188ZM440.712 171.768H418.536V158.7H478.926V171.768H456.75V228H440.712V171.768Z" fill="white"/>
<path fill-rule="evenodd" clip-rule="evenodd" d="M461.845 61.5L424.966 28.868L433.58 19.1321L488.809 68L433.58 116.868L424.966 107.132L461.845 74.5H365V61.5H461.845Z" fill="#FF9F10"/>
</svg>
