<svg width="141" height="18" viewBox="0 0 141 18" fill="none" xmlns="http://www.w3.org/2000/svg">
<path d="M7.878 0.899999C9.304 0.899999 10.5383 1.13767 11.581 1.613C12.639 2.08833 13.4517 2.763 14.019 3.637C14.5863 4.511 14.87 5.546 14.87 6.742C14.87 7.92267 14.5863 8.95767 14.019 9.847C13.4517 10.721 12.639 11.3957 11.581 11.871C10.5383 12.331 9.304 12.561 7.878 12.561H4.635V17H0.909V0.899999H7.878ZM7.671 9.525C8.79033 9.525 9.64133 9.28733 10.224 8.812C10.8067 8.32133 11.098 7.63133 11.098 6.742C11.098 5.83733 10.8067 5.14733 10.224 4.672C9.64133 4.18133 8.79033 3.936 7.671 3.936H4.635V9.525H7.671ZM25.5517 17.276C23.8804 17.276 22.37 16.9157 21.0207 16.195C19.6867 15.4743 18.6364 14.4853 17.8697 13.228C17.1184 11.9553 16.7427 10.5293 16.7427 8.95C16.7427 7.37067 17.1184 5.95233 17.8697 4.695C18.6364 3.42233 19.6867 2.42567 21.0207 1.705C22.37 0.984333 23.8804 0.624 25.5517 0.624C27.223 0.624 28.7257 0.984333 30.0597 1.705C31.3937 2.42567 32.444 3.42233 33.2107 4.695C33.9774 5.95233 34.3607 7.37067 34.3607 8.95C34.3607 10.5293 33.9774 11.9553 33.2107 13.228C32.444 14.4853 31.3937 15.4743 30.0597 16.195C28.7257 16.9157 27.223 17.276 25.5517 17.276ZM25.5517 14.102C26.5024 14.102 27.361 13.8873 28.1277 13.458C28.8944 13.0133 29.4924 12.4 29.9217 11.618C30.3664 10.836 30.5887 9.94667 30.5887 8.95C30.5887 7.95333 30.3664 7.064 29.9217 6.282C29.4924 5.5 28.8944 4.89433 28.1277 4.465C27.361 4.02033 26.5024 3.798 25.5517 3.798C24.601 3.798 23.7424 4.02033 22.9757 4.465C22.209 4.89433 21.6034 5.5 21.1587 6.282C20.7294 7.064 20.5147 7.95333 20.5147 8.95C20.5147 9.94667 20.7294 10.836 21.1587 11.618C21.6034 12.4 22.209 13.0133 22.9757 13.458C23.7424 13.8873 24.601 14.102 25.5517 14.102ZM47.419 17L44.314 12.515H44.13H40.887V17H37.161V0.899999H44.13C45.556 0.899999 46.7903 1.13767 47.833 1.613C48.891 2.08833 49.7036 2.763 50.271 3.637C50.8383 4.511 51.122 5.546 51.122 6.742C51.122 7.938 50.8306 8.973 50.248 9.847C49.6806 10.7057 48.868 11.365 47.81 11.825L51.421 17H47.419ZM47.35 6.742C47.35 5.83733 47.0586 5.14733 46.476 4.672C45.8933 4.18133 45.0423 3.936 43.923 3.936H40.887V9.548H43.923C45.0423 9.548 45.8933 9.30267 46.476 8.812C47.0586 8.32133 47.35 7.63133 47.35 6.742ZM57.1844 3.936H52.0324V0.899999H66.0624V3.936H60.9104V17H57.1844V3.936ZM71.7932 3.89V8.145H79.2452V11.135H71.7932V17H68.0672V0.899999H80.2342V3.89H71.7932ZM90.3964 17.276C88.7251 17.276 87.2148 16.9157 85.8654 16.195C84.5314 15.4743 83.4811 14.4853 82.7144 13.228C81.9631 11.9553 81.5874 10.5293 81.5874 8.95C81.5874 7.37067 81.9631 5.95233 82.7144 4.695C83.4811 3.42233 84.5314 2.42567 85.8654 1.705C87.2148 0.984333 88.7251 0.624 90.3964 0.624C92.0678 0.624 93.5704 0.984333 94.9044 1.705C96.2384 2.42567 97.2888 3.42233 98.0554 4.695C98.8221 5.95233 99.2054 7.37067 99.2054 8.95C99.2054 10.5293 98.8221 11.9553 98.0554 13.228C97.2888 14.4853 96.2384 15.4743 94.9044 16.195C93.5704 16.9157 92.0678 17.276 90.3964 17.276ZM90.3964 14.102C91.3471 14.102 92.2058 13.8873 92.9724 13.458C93.7391 13.0133 94.3371 12.4 94.7664 11.618C95.2111 10.836 95.4334 9.94667 95.4334 8.95C95.4334 7.95333 95.2111 7.064 94.7664 6.282C94.3371 5.5 93.7391 4.89433 92.9724 4.465C92.2058 4.02033 91.3471 3.798 90.3964 3.798C89.4458 3.798 88.5871 4.02033 87.8204 4.465C87.0538 4.89433 86.4481 5.5 86.0034 6.282C85.5741 7.064 85.3594 7.95333 85.3594 8.95C85.3594 9.94667 85.5741 10.836 86.0034 11.618C86.4481 12.4 87.0538 13.0133 87.8204 13.458C88.5871 13.8873 89.4458 14.102 90.3964 14.102ZM102.006 0.899999H105.732V13.964H113.805V17H102.006V0.899999ZM115.887 0.899999H119.613V17H115.887V0.899999ZM131.23 17.276C129.559 17.276 128.049 16.9157 126.699 16.195C125.365 15.4743 124.315 14.4853 123.548 13.228C122.797 11.9553 122.421 10.5293 122.421 8.95C122.421 7.37067 122.797 5.95233 123.548 4.695C124.315 3.42233 125.365 2.42567 126.699 1.705C128.049 0.984333 129.559 0.624 131.23 0.624C132.902 0.624 134.404 0.984333 135.738 1.705C137.072 2.42567 138.123 3.42233 138.889 4.695C139.656 5.95233 140.039 7.37067 140.039 8.95C140.039 10.5293 139.656 11.9553 138.889 13.228C138.123 14.4853 137.072 15.4743 135.738 16.195C134.404 16.9157 132.902 17.276 131.23 17.276ZM131.23 14.102C132.181 14.102 133.04 13.8873 133.806 13.458C134.573 13.0133 135.171 12.4 135.6 11.618C136.045 10.836 136.267 9.94667 136.267 8.95C136.267 7.95333 136.045 7.064 135.6 6.282C135.171 5.5 134.573 4.89433 133.806 4.465C133.04 4.02033 132.181 3.798 131.23 3.798C130.28 3.798 129.421 4.02033 128.654 4.465C127.888 4.89433 127.282 5.5 126.837 6.282C126.408 7.064 126.193 7.95333 126.193 8.95C126.193 9.94667 126.408 10.836 126.837 11.618C127.282 12.4 127.888 13.0133 128.654 13.458C129.421 13.8873 130.28 14.102 131.23 14.102Z" fill="#FF9F10"/>
</svg>
