<?xml version="1.0" standalone="no"?>
<!DOCTYPE svg PUBLIC "-//W3C//DTD SVG 20010904//EN"
 "http://www.w3.org/TR/2001/REC-SVG-20010904/DTD/svg10.dtd">
<svg version="1.0" xmlns="http://www.w3.org/2000/svg"
 width="501.000000pt" height="501.000000pt" viewBox="0 0 501.000000 501.000000"
 preserveAspectRatio="xMidYMid meet">
<metadata>
Created by potrace 1.11, written by Peter Selinger 2001-2013
</metadata>
<g transform="translate(0.000000,501.000000) scale(0.100000,-0.100000)"
fill="#000000" stroke="none">
<path d="M0 2510 l0 -2131 1808 4 c994 1 1817 5 1828 9 12 3 38 9 57 12 209
33 455 144 611 276 49 41 169 163 196 198 14 19 30 39 36 45 16 18 114 165
114 172 0 3 12 24 26 47 14 23 27 46 29 52 1 6 20 49 42 96 72 153 164 443
187 594 4 21 8 48 11 60 4 20 9 54 21 136 22 152 29 285 29 520 0 257 -11 403
-41 560 -2 8 -6 34 -9 58 -14 106 -43 227 -78 332 -11 36 -22 67 -22 70 -17
65 -163 361 -185 375 -6 4 -8 11 -5 16 4 5 2 9 -2 9 -5 0 -17 15 -28 33 -10
17 -24 37 -29 43 -6 6 -20 23 -31 39 -62 86 -280 285 -312 285 -7 0 -13 5 -13
10 0 6 -6 10 -14 10 -7 0 -19 6 -25 14 -11 13 -179 92 -218 102 -10 2 -59 15
-110 29 -50 13 -118 27 -150 31 -32 3 -67 9 -78 12 -11 4 -836 8 -1832 9
l-1813 4 0 -2131z m1824 1416 c225 -32 322 -79 393 -190 49 -76 64 -137 67
-270 7 -245 -87 -407 -269 -466 -22 -7 -44 -15 -50 -19 -5 -3 -12 -6 -15 -6
-3 -1 -18 -4 -35 -8 -75 -17 -142 -19 -647 -22 l-538 -2 0 498 0 499 528 -4
c290 -2 545 -6 566 -10z m1656 -1 c244 -44 390 -124 502 -274 52 -68 118 -211
144 -311 34 -131 48 -197 60 -280 25 -182 28 -230 28 -490 1 -294 -3 -345 -48
-595 -19 -101 -82 -290 -133 -395 -126 -258 -334 -434 -563 -476 -19 -3 -46
-8 -60 -11 -45 -8 -380 -11 -380 -3 0 4 11 37 25 74 72 191 100 408 81 631
-17 199 -73 379 -157 503 -16 24 -29 45 -29 48 0 2 -12 19 -27 36 -95 109
-206 193 -335 251 l-72 33 50 28 c131 76 262 197 316 292 56 100 74 143 98
238 48 189 48 468 0 646 -22 78 -39 73 228 67 130 -3 253 -8 272 -12z m-1601
-1659 c25 -4 70 -13 100 -22 31 -8 63 -16 72 -19 58 -13 219 -133 219 -162 0
-6 4 -13 9 -15 16 -6 63 -123 75 -189 15 -76 13 -249 -3 -329 -24 -119 -87
-239 -158 -300 -61 -53 -86 -70 -100 -70 -7 0 -13 -5 -13 -10 0 -6 -3 -9 -7
-8 -5 0 -15 -1 -23 -4 -45 -17 -131 -39 -175 -44 -27 -4 -296 -8 -597 -9
l-548 -2 0 596 0 597 553 -2 c303 -1 572 -5 596 -8z"/>
</g>
</svg>
