<svg width="49" height="46" viewBox="0 0 49 46" fill="none" xmlns="http://www.w3.org/2000/svg">
<rect x="0.763153" y="0.5" width="46.4737" height="44.5789" rx="22.2895" fill="black" stroke="#FFA91C"/>
<g clip-path="url(#clip0)">
<path d="M38.1641 17.7049C37.8903 16.3466 37.3781 15.0686 36.6326 13.9058C35.7096 12.4724 34.4823 11.475 32.9913 10.9387C32.1089 10.6129 30.9932 10.4425 29.6645 10.4225H20.9722H20.2876H10.5911V33.9787H20.2622H20.2876H29.6645C32.8848 33.9787 35.3039 32.5052 36.8456 29.6032C37.9917 27.4331 38.5749 24.7467 38.5749 21.6192C38.5749 20.3812 38.438 19.0681 38.1641 17.7049ZM14.6735 19.6796V14.432V14.3068H14.8003H19.5319C19.7956 14.3068 20.0543 14.3168 20.2977 14.3318C21.0178 14.3769 21.6365 14.4972 22.1437 14.6877C22.9754 15.0686 23.3963 15.8454 23.3963 17.0032C23.3963 18.0457 23.0819 18.7824 22.4581 19.1984C21.9053 19.5693 21.175 19.7698 20.2926 19.7999C20.2673 19.7999 20.2368 19.8049 20.2115 19.8049C20.1709 19.8099 20.1303 19.8099 20.0847 19.8099H14.8003H14.6735V19.6796ZM22.3465 29.6584C21.8546 29.919 21.1649 30.0643 20.2926 30.0844C20.2622 30.0844 20.2368 30.0844 20.2064 30.0894C20.1658 30.0894 20.1253 30.0944 20.0796 30.0944H14.8003H14.6735V29.9691V23.624V23.4987H14.8003H20.1506C20.1811 23.4987 20.2064 23.4987 20.2318 23.5037L20.2876 23.5087C21.175 23.5338 21.88 23.6691 22.377 23.9197C23.3405 24.4058 23.8324 25.298 23.8324 26.581C23.8375 28.0846 23.3354 29.1221 22.3465 29.6584ZM33.5086 26.5409C32.6465 28.9016 31.0946 30.0944 28.8987 30.0944H27.7019H27.5092L27.5852 29.919C27.9757 29.0068 28.1735 27.9944 28.1735 26.9168C28.1735 25.5786 27.8946 24.4259 27.3418 23.4887C26.7941 22.5614 25.9726 21.8698 24.8924 21.4438L24.6489 21.3485L24.8771 21.2182C25.5871 20.8173 26.1348 20.3762 26.4949 19.8951C27.144 19.038 27.4787 17.8853 27.4787 16.4669C27.4787 15.7552 27.3875 15.0836 27.21 14.4671L27.1643 14.3068H27.3317H28.8937C31.0033 14.3068 32.4335 14.9834 33.1485 16.3216C33.8484 17.6297 34.2034 19.5292 34.2034 21.96C34.2085 23.7192 33.9752 25.2629 33.5086 26.5409Z" fill="white"/>
</g>
<defs>
<clipPath id="clip0">
<rect width="27.9838" height="23.5562" fill="white" transform="translate(10.5911 10.4225)"/>
</clipPath>
</defs>
</svg>
