<svg width="325" height="47" viewBox="0 0 325 47" fill="none" xmlns="http://www.w3.org/2000/svg">
<path d="M24.462 18.256C26.302 18.8387 27.7433 19.82 28.786 21.2C29.8287 22.5493 30.35 24.2207 30.35 26.214C30.35 29.0353 29.246 31.2127 27.038 32.746C24.8607 34.2487 21.6713 35 17.47 35H0.818V2.8H16.55C20.4753 2.8 23.4807 3.55133 25.566 5.054C27.682 6.55666 28.74 8.596 28.74 11.172C28.74 12.736 28.3567 14.1313 27.59 15.358C26.854 16.5847 25.8113 17.5507 24.462 18.256ZM8.224 8.412V16.002H15.63C17.47 16.002 18.8653 15.68 19.816 15.036C20.7667 14.392 21.242 13.4413 21.242 12.184C21.242 10.9267 20.7667 9.99133 19.816 9.378C18.8653 8.734 17.47 8.412 15.63 8.412H8.224ZM16.918 29.388C18.8807 29.388 20.3527 29.066 21.334 28.422C22.346 27.778 22.852 26.7813 22.852 25.432C22.852 22.764 20.874 21.43 16.918 21.43H8.224V29.388H16.918ZM35.9918 2.8H43.4438V28.928H59.5898V35H35.9918V2.8ZM85.2291 28.1H70.2791L67.4271 35H59.7911L74.1431 2.8H81.5031L95.9011 35H88.0811L85.2291 28.1ZM82.8831 22.442L77.7771 10.114L72.6711 22.442H82.8831ZM99.2418 2.8H113.87C117.366 2.8 120.448 3.47466 123.116 4.824C125.814 6.14267 127.9 8.01333 129.372 10.436C130.874 12.8587 131.626 15.68 131.626 18.9C131.626 22.12 130.874 24.9413 129.372 27.364C127.9 29.7867 125.814 31.6727 123.116 33.022C120.448 34.3407 117.366 35 113.87 35H99.2418V2.8ZM113.502 28.882C116.722 28.882 119.282 27.9927 121.184 26.214C123.116 24.4047 124.082 21.9667 124.082 18.9C124.082 15.8333 123.116 13.4107 121.184 11.632C119.282 9.82267 116.722 8.918 113.502 8.918H106.694V28.882H113.502ZM152.84 35.552C149.497 35.552 146.476 34.8313 143.778 33.39C141.11 31.9487 139.009 29.9707 137.476 27.456C135.973 24.9107 135.222 22.0587 135.222 18.9C135.222 15.7413 135.973 12.9047 137.476 10.39C139.009 7.84467 141.11 5.85133 143.778 4.41C146.476 2.96867 149.497 2.248 152.84 2.248C156.182 2.248 159.188 2.96867 161.856 4.41C164.524 5.85133 166.624 7.84467 168.158 10.39C169.691 12.9047 170.458 15.7413 170.458 18.9C170.458 22.0587 169.691 24.9107 168.158 27.456C166.624 29.9707 164.524 31.9487 161.856 33.39C159.188 34.8313 156.182 35.552 152.84 35.552ZM152.84 29.204C154.741 29.204 156.458 28.7747 157.992 27.916C159.525 27.0267 160.721 25.8 161.58 24.236C162.469 22.672 162.914 20.8933 162.914 18.9C162.914 16.9067 162.469 15.128 161.58 13.564C160.721 12 159.525 10.7887 157.992 9.93C156.458 9.04067 154.741 8.596 152.84 8.596C150.938 8.596 149.221 9.04067 147.688 9.93C146.154 10.7887 144.943 12 144.054 13.564C143.195 15.128 142.766 16.9067 142.766 18.9C142.766 20.8933 143.195 22.672 144.054 24.236C144.943 25.8 146.154 27.0267 147.688 27.916C149.221 28.7747 150.938 29.204 152.84 29.204Z" fill="#FF9F10"/>
<path d="M203.07 35.46C201.69 35.46 200.67 35.138 200.011 34.494C199.367 33.8347 199.045 32.953 199.045 31.849C199.045 31.665 199.052 31.458 199.068 31.228C199.083 30.9827 199.114 30.745 199.16 30.515L199.85 27.019L201.253 23.247L201.414 20.487L206.589 1.236H202.932V0.499997H212.753L204.197 32.723C204.135 32.953 204.105 33.1907 204.105 33.436C204.105 33.6047 204.151 33.7657 204.243 33.919C204.35 34.057 204.526 34.126 204.772 34.126C205.262 34.126 205.776 33.942 206.313 33.574C206.865 33.1907 207.455 32.5237 208.084 31.573C208.728 30.607 209.418 29.273 210.154 27.571L210.867 27.801C210.131 29.549 209.387 30.9903 208.636 32.125C207.884 33.2597 207.056 34.103 206.152 34.655C205.247 35.1917 204.22 35.46 203.07 35.46ZM192.398 35.46C190.282 35.46 188.748 34.7853 187.798 33.436C186.862 32.0713 186.395 30.2543 186.395 27.985C186.395 26.2217 186.724 24.4813 187.384 22.764C188.043 21.0313 188.925 19.4597 190.029 18.049C191.133 16.6383 192.359 15.5113 193.709 14.668C195.058 13.8093 196.43 13.38 197.826 13.38C198.776 13.38 199.551 13.6253 200.149 14.116C200.762 14.5913 201.214 15.2583 201.506 16.117C201.797 16.9757 201.943 17.9723 201.943 19.107C201.943 19.8583 201.843 20.786 201.644 21.89C201.46 22.9787 201.184 24.1363 200.816 25.363C200.463 26.5897 200.011 27.801 199.459 28.997C198.922 30.1777 198.301 31.2587 197.596 32.24C196.89 33.2213 196.101 34.0033 195.227 34.586C194.368 35.1687 193.425 35.46 192.398 35.46ZM194.376 33.597C195.004 33.597 195.648 33.275 196.308 32.631C196.967 31.9717 197.596 31.113 198.194 30.055C198.792 28.997 199.328 27.824 199.804 26.536C200.279 25.2327 200.655 23.9293 200.931 22.626C201.207 21.3073 201.345 20.0883 201.345 18.969C201.345 18.2177 201.276 17.5583 201.138 16.991C201 16.4237 200.777 15.9867 200.471 15.68C200.179 15.358 199.796 15.197 199.321 15.197C198.707 15.197 198.079 15.5497 197.435 16.255C196.791 16.945 196.162 17.8573 195.549 18.992C194.951 20.1113 194.414 21.3457 193.939 22.695C193.463 24.0443 193.08 25.3937 192.789 26.743C192.513 28.077 192.375 29.2807 192.375 30.354C192.375 31.3813 192.543 32.1787 192.881 32.746C193.218 33.3133 193.716 33.597 194.376 33.597ZM220.599 35.46C218.928 35.46 217.533 35.138 216.413 34.494C215.309 33.8347 214.474 32.953 213.906 31.849C213.354 30.7297 213.078 29.48 213.078 28.1C213.078 26.214 213.431 24.3893 214.136 22.626C214.842 20.8627 215.823 19.291 217.08 17.911C218.338 16.5157 219.794 15.4117 221.45 14.599C223.106 13.7863 224.885 13.38 226.786 13.38C228.964 13.38 230.658 13.8553 231.869 14.806C233.081 15.7567 233.686 16.922 233.686 18.302C233.686 19.4213 233.334 20.441 232.628 21.361C231.938 22.2657 230.942 23.0553 229.638 23.73C228.35 24.3893 226.809 24.926 225.015 25.34C223.221 25.7387 221.22 25.9993 219.012 26.122V25.547C220.116 25.4703 221.151 25.2097 222.117 24.765C223.099 24.305 223.98 23.7223 224.762 23.017C225.56 22.2963 226.25 21.522 226.832 20.694C227.415 19.8507 227.86 19.0073 228.166 18.164C228.488 17.3207 228.649 16.5463 228.649 15.841C228.649 15.381 228.55 14.9823 228.35 14.645C228.151 14.2923 227.798 14.116 227.292 14.116C226.618 14.116 225.935 14.4073 225.245 14.99C224.571 15.5727 223.911 16.3623 223.267 17.359C222.639 18.3403 222.056 19.4443 221.519 20.671C220.983 21.8977 220.507 23.1627 220.093 24.466C219.695 25.754 219.38 27.0037 219.15 28.215C218.936 29.411 218.828 30.4767 218.828 31.412C218.828 32.562 219.089 33.3593 219.61 33.804C220.147 34.2487 220.837 34.471 221.68 34.471C222.738 34.471 223.796 34.2333 224.854 33.758C225.928 33.2827 226.947 32.608 227.913 31.734C228.895 30.86 229.784 29.825 230.581 28.629L231.225 29.043C230.505 30.1317 229.646 31.1667 228.649 32.148C227.653 33.114 226.487 33.9113 225.153 34.54C223.835 35.1533 222.317 35.46 220.599 35.46ZM243.695 35.46C242.055 35.46 240.59 35.2377 239.302 34.793C238.03 34.333 237.018 33.6813 236.266 32.838C235.53 31.9947 235.162 31.0057 235.162 29.871C235.162 28.951 235.461 28.1613 236.059 27.502C236.673 26.8427 237.485 26.513 238.497 26.513C239.417 26.513 240.176 26.8043 240.774 27.387C241.372 27.9543 241.671 28.721 241.671 29.687C241.671 30.6837 241.349 31.4427 240.705 31.964C240.061 32.47 239.31 32.723 238.451 32.723C237.853 32.723 237.309 32.6003 236.818 32.355C236.328 32.1097 235.937 31.78 235.645 31.366C235.354 30.9367 235.208 30.4383 235.208 29.871H236.197C236.197 30.883 236.519 31.7493 237.163 32.47C237.807 33.1907 238.658 33.7427 239.716 34.126C240.79 34.494 241.955 34.678 243.212 34.678C244.025 34.678 244.799 34.5247 245.535 34.218C246.287 33.896 246.892 33.4437 247.352 32.861C247.828 32.2783 248.065 31.6037 248.065 30.837C248.065 30.0243 247.828 29.3113 247.352 28.698C246.877 28.0693 246.264 27.502 245.512 26.996C244.776 26.4747 243.979 25.9687 243.12 25.478C242.277 24.972 241.48 24.4507 240.728 23.914C239.992 23.362 239.387 22.741 238.911 22.051C238.436 21.3457 238.198 20.533 238.198 19.613C238.198 18.4323 238.559 17.3667 239.279 16.416C240 15.4653 241.012 14.714 242.315 14.162C243.634 13.5947 245.183 13.311 246.961 13.311C248.694 13.311 250.097 13.5487 251.17 14.024C252.259 14.4993 253.056 15.0973 253.562 15.818C254.084 16.5233 254.344 17.2363 254.344 17.957C254.344 18.9537 254.038 19.7203 253.424 20.257C252.811 20.7783 252.121 21.039 251.354 21.039C250.496 21.039 249.729 20.763 249.054 20.211C248.38 19.659 248.042 18.8923 248.042 17.911C248.042 17.129 248.326 16.462 248.893 15.91C249.461 15.3427 250.204 15.059 251.124 15.059C251.968 15.059 252.704 15.3273 253.332 15.864C253.976 16.4007 254.298 17.0983 254.298 17.957H253.424C253.424 17.313 253.187 16.6997 252.711 16.117C252.251 15.519 251.577 15.036 250.687 14.668C249.813 14.2847 248.763 14.093 247.536 14.093C246.708 14.093 245.957 14.2387 245.282 14.53C244.623 14.8213 244.086 15.22 243.672 15.726C243.274 16.232 243.074 16.8147 243.074 17.474C243.074 18.256 243.32 18.946 243.81 19.544C244.301 20.1267 244.93 20.6633 245.696 21.154C246.463 21.6447 247.276 22.1353 248.134 22.626C248.993 23.1167 249.806 23.6533 250.572 24.236C251.354 24.8187 251.983 25.4857 252.458 26.237C252.949 26.9883 253.194 27.8853 253.194 28.928C253.194 30.2467 252.773 31.3967 251.929 32.378C251.101 33.3593 249.967 34.1183 248.525 34.655C247.099 35.1917 245.489 35.46 243.695 35.46ZM261.163 35.46C259.675 35.46 258.602 35.1687 257.943 34.586C257.299 34.0033 256.977 33.2367 256.977 32.286C256.977 31.872 257.007 31.481 257.069 31.113C257.145 30.745 257.214 30.4383 257.276 30.193L261.577 14.576H258.334V13.84H267.695L262.543 32.654C262.512 32.7767 262.481 32.907 262.451 33.045C262.435 33.1677 262.428 33.2903 262.428 33.413C262.428 33.6123 262.474 33.781 262.566 33.919C262.673 34.057 262.849 34.126 263.095 34.126C263.585 34.126 264.099 33.942 264.636 33.574C265.188 33.1907 265.778 32.5237 266.407 31.573C267.051 30.6223 267.741 29.2883 268.477 27.571L269.19 27.801C268.469 29.549 267.725 30.9903 266.959 32.125C266.192 33.2597 265.349 34.103 264.429 34.655C263.509 35.1917 262.42 35.46 261.163 35.46ZM266.729 7.998C265.993 7.998 265.326 7.814 264.728 7.446C264.145 7.078 263.685 6.595 263.348 5.997C263.01 5.399 262.842 4.755 262.842 4.065C262.842 3.35967 263.01 2.71567 263.348 2.133C263.685 1.535 264.145 1.05967 264.728 0.706999C265.326 0.338998 265.993 0.154998 266.729 0.154998C267.465 0.154998 268.124 0.338998 268.707 0.706999C269.305 1.05967 269.78 1.535 270.133 2.133C270.485 2.71567 270.662 3.35967 270.662 4.065C270.662 4.755 270.485 5.399 270.133 5.997C269.78 6.595 269.305 7.078 268.707 7.446C268.124 7.814 267.465 7.998 266.729 7.998ZM276.886 46.96C274.801 46.96 273.037 46.7377 271.596 46.293C270.155 45.8637 269.066 45.2427 268.33 44.43C267.594 43.6327 267.226 42.682 267.226 41.578C267.226 40.8113 267.456 40.0907 267.916 39.416C268.361 38.7567 268.966 38.1663 269.733 37.645C270.484 37.139 271.328 36.7403 272.263 36.449C273.198 36.1577 274.141 36.012 275.092 36.012H275.851C275.115 36.196 274.448 36.5487 273.85 37.07C273.267 37.6067 272.8 38.2583 272.447 39.025C272.094 39.807 271.918 40.658 271.918 41.578C271.918 43.0347 272.401 44.1463 273.367 44.913C274.348 45.695 275.797 46.086 277.714 46.086C279.201 46.086 280.627 45.902 281.992 45.534C283.372 45.1813 284.606 44.683 285.695 44.039C286.784 43.395 287.642 42.6437 288.271 41.785C288.915 40.9417 289.237 40.0293 289.237 39.048C289.237 38.2047 288.976 37.576 288.455 37.162C287.934 36.7633 287.19 36.564 286.224 36.564C285.933 36.564 285.473 36.564 284.844 36.564C284.215 36.564 283.502 36.564 282.705 36.564C281.923 36.564 281.149 36.564 280.382 36.564C279.615 36.564 278.941 36.564 278.358 36.564C277.775 36.564 277.384 36.564 277.185 36.564C275.805 36.564 274.563 36.3723 273.459 35.989C272.355 35.6057 271.481 35.0613 270.837 34.356C270.208 33.6353 269.894 32.7843 269.894 31.803C269.894 30.9443 270.147 30.1777 270.653 29.503C271.174 28.8283 271.864 28.261 272.723 27.801C273.582 27.3257 274.555 26.973 275.644 26.743C276.733 26.4977 277.852 26.375 279.002 26.375L278.956 26.812C277.453 26.812 276.311 27.088 275.529 27.64C274.747 28.192 274.356 28.7593 274.356 29.342C274.356 29.8633 274.548 30.2697 274.931 30.561C275.33 30.837 275.851 31.0287 276.495 31.136C277.139 31.228 277.837 31.274 278.588 31.274C279.125 31.274 279.776 31.274 280.543 31.274C281.325 31.2587 282.092 31.251 282.843 31.251C283.594 31.2357 284.185 31.228 284.614 31.228C286.515 31.228 288.079 31.6727 289.306 32.562C290.548 33.436 291.169 34.8927 291.169 36.932C291.169 38.6033 290.747 40.0677 289.904 41.325C289.061 42.5823 287.941 43.625 286.546 44.453C285.166 45.2963 283.633 45.925 281.946 46.339C280.259 46.753 278.573 46.96 276.886 46.96ZM281.9 27.64C280.382 27.64 279.025 27.387 277.829 26.881C276.648 26.375 275.713 25.6543 275.023 24.719C274.348 23.7837 274.011 22.6643 274.011 21.361C274.011 19.889 274.479 18.555 275.414 17.359C276.349 16.1477 277.591 15.1893 279.14 14.484C280.689 13.7633 282.375 13.403 284.2 13.403C285.703 13.403 287.044 13.6713 288.225 14.208C289.421 14.7447 290.364 15.5037 291.054 16.485C291.744 17.451 292.089 18.5857 292.089 19.889C292.089 21.3457 291.614 22.6643 290.663 23.845C289.728 25.0103 288.486 25.938 286.937 26.628C285.404 27.3027 283.725 27.64 281.9 27.64ZM281.325 26.881C281.785 26.881 282.253 26.628 282.728 26.122C283.203 25.6007 283.663 24.926 284.108 24.098C284.553 23.2547 284.951 22.3577 285.304 21.407C285.657 20.441 285.933 19.5133 286.132 18.624C286.347 17.7347 286.454 16.9833 286.454 16.37C286.454 15.7413 286.316 15.2123 286.04 14.783C285.779 14.3537 285.358 14.139 284.775 14.139C284.315 14.139 283.847 14.3997 283.372 14.921C282.897 15.4423 282.437 16.117 281.992 16.945C281.547 17.773 281.149 18.67 280.796 19.636C280.443 20.5867 280.16 21.5067 279.945 22.396C279.746 23.2853 279.646 24.029 279.646 24.627C279.646 25.2557 279.776 25.7923 280.037 26.237C280.313 26.6663 280.742 26.881 281.325 26.881ZM295.125 13.61C296.198 13.61 297.088 13.9473 297.793 14.622C298.514 15.2813 298.874 16.117 298.874 17.129C298.874 17.9877 298.621 18.7237 298.115 19.337C297.609 19.935 296.904 20.234 295.999 20.234C295.232 20.234 294.573 19.981 294.021 19.475C293.469 18.969 293.193 18.2943 293.193 17.451C293.193 16.7303 293.438 16.14 293.929 15.68C294.435 15.2047 295.025 14.9363 295.7 14.875C296.083 14.9057 296.444 15.0283 296.781 15.243C297.118 15.4577 297.364 15.7567 297.517 16.14C297.364 15.588 297.042 15.151 296.551 14.829C296.076 14.507 295.524 14.346 294.895 14.346C294.159 14.346 293.461 14.5223 292.802 14.875C292.158 15.2277 291.552 15.749 290.985 16.439C290.418 17.129 289.889 17.98 289.398 18.992L288.869 18.693C289.682 16.991 290.594 15.7183 291.606 14.875C292.633 14.0317 293.806 13.61 295.125 13.61ZM316.161 35.46C314.781 35.46 313.754 35.1457 313.079 34.517C312.404 33.873 312.067 33.0067 312.067 31.918C312.067 31.5807 312.105 31.2203 312.182 30.837C312.259 30.4383 312.343 30.0933 312.435 29.802L315.172 20.556C315.525 19.36 315.762 18.371 315.885 17.589C316.008 16.807 315.985 16.2243 315.816 15.841C315.663 15.4577 315.341 15.266 314.85 15.266C314.344 15.266 313.715 15.6263 312.964 16.347C312.228 17.0523 311.454 18.0337 310.641 19.291C309.828 20.5483 309.054 21.9973 308.318 23.638C307.582 25.2787 306.961 27.0267 306.455 28.882H305.949C306.302 27.5633 306.746 26.191 307.283 24.765C307.835 23.3237 308.464 21.936 309.169 20.602C309.89 19.2527 310.672 18.0337 311.515 16.945C312.374 15.8563 313.278 14.9977 314.229 14.369C315.18 13.725 316.161 13.403 317.173 13.403C318.446 13.403 319.45 13.7097 320.186 14.323C320.937 14.921 321.405 15.7413 321.589 16.784C321.788 17.8267 321.696 18.9997 321.313 20.303L317.794 32.263C317.763 32.3857 317.733 32.5313 317.702 32.7C317.671 32.8687 317.656 33.0143 317.656 33.137C317.656 33.3823 317.702 33.574 317.794 33.712C317.901 33.85 318.078 33.919 318.323 33.919C319.182 33.919 320.048 33.4053 320.922 32.378C321.811 31.3507 322.716 29.7483 323.636 27.571L324.326 27.801C323.575 29.6563 322.793 31.1437 321.98 32.263C321.167 33.3823 320.286 34.195 319.335 34.701C318.384 35.207 317.326 35.46 316.161 35.46ZM298.819 35L304.201 14.576H301.073V13.84H310.457L304.845 35H298.819Z" fill="white"/>
</svg>
