<svg width="166" height="163" viewBox="0 0 166 163" fill="none" xmlns="http://www.w3.org/2000/svg">
<g clip-path="url(#clip0)">
<path d="M163.288 50.2055C161.668 40.8417 158.638 32.0306 154.228 24.0143C148.768 14.1322 141.508 7.25613 132.688 3.55896C127.468 1.31301 120.868 0.138212 113.008 0H61.5889H57.5389H0.179443V162.399H57.3889H57.5389H113.008C132.058 162.399 146.368 152.241 155.488 132.234C162.268 117.273 165.718 98.7525 165.718 77.1914C165.718 68.6568 164.908 59.604 163.288 50.2055ZM24.3292 63.8194V27.6424V26.7786H25.0792H53.0689C54.6289 26.7786 56.1589 26.8477 57.5989 26.9514C61.8589 27.2623 65.5188 28.0916 68.5188 29.4046C73.4388 32.0306 75.9287 37.3864 75.9287 45.3681C75.9287 52.5551 74.0687 57.6344 70.3788 60.5023C67.1088 63.0593 62.7889 64.4414 57.5689 64.6487C57.4189 64.6487 57.2389 64.6832 57.0889 64.6832C56.8489 64.7178 56.6089 64.7178 56.3389 64.7178H25.0792H24.3292V63.8194ZM69.7188 132.614C66.8088 134.411 62.7289 135.413 57.5689 135.551C57.3889 135.551 57.2389 135.551 57.0589 135.586C56.8189 135.586 56.5789 135.621 56.3089 135.621H25.0792H24.3292V134.757V91.0126V90.1488H25.0792H56.7289C56.9089 90.1488 57.0589 90.1488 57.2089 90.1834L57.5389 90.2179C62.7889 90.3907 66.9588 91.3236 69.8988 93.0513C75.5987 96.4029 78.5087 102.553 78.5087 111.399C78.5387 121.765 75.5687 128.917 69.7188 132.614ZM135.748 111.122C130.648 127.397 121.468 135.621 108.478 135.621H101.398H100.259L100.708 134.411C103.018 128.123 104.188 121.143 104.188 113.714C104.188 104.488 102.538 96.5411 99.2685 90.0797C96.0285 83.6874 91.1686 78.9191 84.7787 75.9821L83.3387 75.3256L84.6887 74.4272C88.8886 71.663 92.1286 68.6223 94.2586 65.3052C98.0985 59.3966 100.079 51.4494 100.079 41.6709C100.079 36.7644 99.5385 32.1343 98.4885 27.8843L98.2185 26.7786H99.2085H108.448C120.928 26.7786 129.388 31.4432 133.618 40.6689C137.758 49.6872 139.858 62.7828 139.858 79.541C139.888 91.6692 138.508 102.311 135.748 111.122Z" fill="white"/>
</g>
<defs>
<clipPath id="clip0">
<rect width="165.538" height="162.399" fill="white" transform="translate(0.179443)"/>
</clipPath>
</defs>
</svg>
