<svg width="207" height="20" viewBox="0 0 207 20" fill="none" xmlns="http://www.w3.org/2000/svg">
<path d="M13.522 9.536C14.562 9.86533 15.3767 10.42 15.966 11.2C16.5553 11.9627 16.85 12.9073 16.85 14.034C16.85 15.6287 16.226 16.8593 14.978 17.726C13.7473 18.5753 11.9447 19 9.57 19H0.158V0.799999H9.05C11.2687 0.799999 12.9673 1.22467 14.146 2.074C15.342 2.92333 15.94 4.076 15.94 5.532C15.94 6.416 15.7233 7.20467 15.29 7.898C14.874 8.59133 14.2847 9.13733 13.522 9.536ZM4.344 3.972V8.262H8.53C9.57 8.262 10.3587 8.08 10.896 7.716C11.4333 7.352 11.702 6.81467 11.702 6.104C11.702 5.39333 11.4333 4.86467 10.896 4.518C10.3587 4.154 9.57 3.972 8.53 3.972H4.344ZM9.258 15.828C10.3673 15.828 11.1993 15.646 11.754 15.282C12.326 14.918 12.612 14.3547 12.612 13.592C12.612 12.084 11.494 11.33 9.258 11.33H4.344V15.828H9.258ZM20.0389 0.799999H24.2509V15.568H33.3769V19H20.0389V0.799999ZM47.8686 15.1H39.4186L37.8066 19H33.4906L41.6026 0.799999H45.7626L53.9006 19H49.4806L47.8686 15.1ZM46.5426 11.902L43.6566 4.934L40.7706 11.902H46.5426ZM67.833 9.614H71.681V16.998C70.693 17.7433 69.549 18.3153 68.249 18.714C66.949 19.1127 65.6403 19.312 64.323 19.312C62.4336 19.312 60.735 18.9133 59.227 18.116C57.719 17.3013 56.5316 16.1833 55.665 14.762C54.8156 13.3233 54.391 11.7027 54.391 9.9C54.391 8.09733 54.8156 6.48533 55.665 5.064C56.5316 3.62533 57.7276 2.50733 59.253 1.71C60.7783 0.895333 62.4943 0.488 64.401 0.488C65.9956 0.488 67.443 0.756666 68.743 1.294C70.043 1.83133 71.135 2.61133 72.019 3.634L69.315 6.13C68.015 4.76067 66.4463 4.076 64.609 4.076C63.4476 4.076 62.4163 4.31867 61.515 4.804C60.6136 5.28933 59.9116 5.974 59.409 6.858C58.9063 7.742 58.655 8.756 58.655 9.9C58.655 11.0267 58.9063 12.032 59.409 12.916C59.9116 13.8 60.605 14.4933 61.489 14.996C62.3903 15.4813 63.413 15.724 64.557 15.724C65.7703 15.724 66.8623 15.464 67.833 14.944V9.614ZM75.5935 0.799999H79.8055V19H75.5935V0.799999ZM87.8948 4.232H82.0708V0.799999H97.9308V4.232H92.1068V19H87.8948V4.232ZM106.05 19.312C104.611 19.312 103.216 19.1213 101.864 18.74C100.529 18.3413 99.4548 17.83 98.6401 17.206L100.07 14.034C100.85 14.606 101.777 15.0653 102.852 15.412C103.927 15.7587 105.001 15.932 106.076 15.932C107.272 15.932 108.156 15.7587 108.728 15.412C109.3 15.048 109.586 14.5713 109.586 13.982C109.586 13.5487 109.413 13.1933 109.066 12.916C108.737 12.6213 108.303 12.3873 107.766 12.214C107.246 12.0407 106.535 11.85 105.634 11.642C104.247 11.3127 103.112 10.9833 102.228 10.654C101.344 10.3247 100.581 9.796 99.9401 9.068C99.3161 8.34 99.0041 7.36933 99.0041 6.156C99.0041 5.09867 99.2901 4.14533 99.8621 3.296C100.434 2.42933 101.292 1.74467 102.436 1.242C103.597 0.739333 105.01 0.488 106.674 0.488C107.835 0.488 108.971 0.626666 110.08 0.903999C111.189 1.18133 112.16 1.58 112.992 2.1L111.692 5.298C110.011 4.34467 108.329 3.868 106.648 3.868C105.469 3.868 104.594 4.05867 104.022 4.44C103.467 4.82133 103.19 5.324 103.19 5.948C103.19 6.572 103.511 7.04 104.152 7.352C104.811 7.64667 105.807 7.94133 107.142 8.236C108.529 8.56533 109.664 8.89467 110.548 9.224C111.432 9.55333 112.186 10.0733 112.81 10.784C113.451 11.4947 113.772 12.4567 113.772 13.67C113.772 14.71 113.477 15.6633 112.888 16.53C112.316 17.3793 111.449 18.0553 110.288 18.558C109.127 19.0607 107.714 19.312 106.05 19.312ZM124.013 0.799999H132.281C134.257 0.799999 135.999 1.18133 137.507 1.944C139.033 2.68933 140.211 3.74667 141.043 5.116C141.893 6.48533 142.317 8.08 142.317 9.9C142.317 11.72 141.893 13.3147 141.043 14.684C140.211 16.0533 139.033 17.1193 137.507 17.882C135.999 18.6273 134.257 19 132.281 19H124.013V0.799999ZM132.073 15.542C133.893 15.542 135.341 15.0393 136.415 14.034C137.507 13.0113 138.053 11.6333 138.053 9.9C138.053 8.16667 137.507 6.79733 136.415 5.792C135.341 4.76933 133.893 4.258 132.073 4.258H128.225V15.542H132.073ZM154.308 19.312C152.419 19.312 150.711 18.9047 149.186 18.09C147.678 17.2753 146.491 16.1573 145.624 14.736C144.775 13.2973 144.35 11.6853 144.35 9.9C144.35 8.11467 144.775 6.51133 145.624 5.09C146.491 3.65133 147.678 2.52467 149.186 1.71C150.711 0.895333 152.419 0.488 154.308 0.488C156.197 0.488 157.896 0.895333 159.404 1.71C160.912 2.52467 162.099 3.65133 162.966 5.09C163.833 6.51133 164.266 8.11467 164.266 9.9C164.266 11.6853 163.833 13.2973 162.966 14.736C162.099 16.1573 160.912 17.2753 159.404 18.09C157.896 18.9047 156.197 19.312 154.308 19.312ZM154.308 15.724C155.383 15.724 156.353 15.4813 157.22 14.996C158.087 14.4933 158.763 13.8 159.248 12.916C159.751 12.032 160.002 11.0267 160.002 9.9C160.002 8.77333 159.751 7.768 159.248 6.884C158.763 6 158.087 5.31533 157.22 4.83C156.353 4.32733 155.383 4.076 154.308 4.076C153.233 4.076 152.263 4.32733 151.396 4.83C150.529 5.31533 149.845 6 149.342 6.884C148.857 7.768 148.614 8.77333 148.614 9.9C148.614 11.0267 148.857 12.032 149.342 12.916C149.845 13.8 150.529 14.4933 151.396 14.996C152.263 15.4813 153.233 15.724 154.308 15.724ZM184.123 0.799999V19H180.665L171.591 7.95V19H167.431V0.799999H170.915L179.963 11.85V0.799999H184.123ZM200.415 15.1H191.965L190.353 19H186.037L194.149 0.799999H198.309L206.447 19H202.027L200.415 15.1ZM199.089 11.902L196.203 4.934L193.317 11.902H199.089Z" fill="white"/>
</svg>
