<svg width="39" height="37" viewBox="0 0 39 37" fill="none" xmlns="http://www.w3.org/2000/svg">
<rect width="39" height="37" rx="18.5" fill="black"/>
<path d="M31.6477 14.183C31.4128 13.0298 30.9735 11.9447 30.3342 10.9574C29.5426 9.74043 28.49 8.89362 27.2113 8.4383C26.4545 8.1617 25.4976 8.01702 24.3581 8H16.9032H16.3161H8V28H16.2943H16.3161H24.3581C27.12 28 29.1946 26.7489 30.5169 24.2851C31.4998 22.4426 32 20.1617 32 17.5064C32 16.4553 31.8826 15.3404 31.6477 14.183ZM11.5013 15.8596V11.4043V11.2979H11.61H15.668C15.8942 11.2979 16.116 11.3064 16.3248 11.3191C16.9424 11.3574 17.473 11.4596 17.9079 11.6213C18.6212 11.9447 18.9822 12.6043 18.9822 13.5872C18.9822 14.4723 18.7126 15.0979 18.1776 15.4511C17.7035 15.766 17.0772 15.9362 16.3204 15.9617C16.2987 15.9617 16.2726 15.966 16.2508 15.966C16.216 15.9702 16.1812 15.9702 16.1421 15.9702H11.61H11.5013V15.8596ZM18.0819 24.3319C17.66 24.5532 17.0685 24.6766 16.3204 24.6936C16.2943 24.6936 16.2726 24.6936 16.2465 24.6979C16.2117 24.6979 16.1769 24.7021 16.1377 24.7021H11.61H11.5013V24.5957V19.2085V19.1021H11.61H16.1986C16.2247 19.1021 16.2465 19.1021 16.2682 19.1064L16.3161 19.1106C17.0772 19.1319 17.6818 19.2468 18.108 19.4596C18.9344 19.8723 19.3563 20.6298 19.3563 21.7191C19.3606 22.9957 18.93 23.8766 18.0819 24.3319ZM27.6549 21.6851C26.9155 23.6894 25.5846 24.7021 23.7013 24.7021H22.6749H22.5096L22.5748 24.5532C22.9097 23.7787 23.0794 22.9191 23.0794 22.0043C23.0794 20.8681 22.8402 19.8894 22.3661 19.0936C21.8963 18.3064 21.1917 17.7191 20.2653 17.3574L20.0565 17.2766L20.2523 17.166C20.8612 16.8255 21.3309 16.4511 21.6397 16.0426C22.1964 15.3149 22.4835 14.3362 22.4835 13.1319C22.4835 12.5277 22.4052 11.9574 22.253 11.434L22.2138 11.2979H22.3574H23.697C25.5063 11.2979 26.7329 11.8723 27.3461 13.0085C27.9464 14.1191 28.2508 15.7319 28.2508 17.7957C28.2552 19.2894 28.0551 20.6 27.6549 21.6851Z" fill="white"/>
</svg>
